<?xml version="1.0" encoding="UTF-8"?>
<svg id="Layer_2" data-name="Layer 2" xmlns="http://www.w3.org/2000/svg" width="49.95" height="107.35" viewBox="0 0 49.95 107.35">
  <defs>
    <style>
      .cls-1 {
        stroke: black;
        stroke: black;
        stroke-miterlimit: 10;
        stroke-width: 6px;
      }
    </style>
  </defs>
  <g id="Layer_1-2" data-name="Layer 1">
    <path class="cls-1" d="m44.35,34.02c.35,8.4-.97,15.98-4.1,23.14-2.84,6.49-2.42,13.02.1,19.39,1.49,3.77,3.47,7.31,5.24,10.94,2.6,5.34,1.49,10.68-3.31,13.46-9.66,5.58-19.18,3.88-28.01-2.23-8.53-5.9-11.2-15.04-10.04-25.99.71-6.75,2.55-13.07,5.01-19.16,4.69-11.62,3.86-22.49-2.65-33-2.12-3.42-5.08-7.05-2.68-11.72,2.41-4.68,6.74-5.62,11.09-5.82,16.12-.76,28.73,12.42,29.36,30.99Z"/>
  </g>
</svg>