<?xml version="1.0" encoding="UTF-8"?>
<svg id="Layer_2" data-name="Layer 2" xmlns="http://www.w3.org/2000/svg" width="51.37" height="110.46" viewBox="0 0 51.37 110.46">
  <defs>
    <style>
      .cls-1 {
        fill: none;
        stroke: black;
        stroke-miterlimit: 10;
        stroke-width: 6px;
      }
    </style>
  </defs>
  <g id="Layer_1-2" data-name="Layer 1">
    <path class="cls-1" d="m48.37,52.8c0,5.43-.01,10.86-.02,16.3.01,4.12,0,8.24-.01,12.36,0,1.42-.1,2.81-.28,4.17-1.67,12.33-10.61,21.5-21.9,21.82-11.27.32-21.16-9.13-22.77-21.82-.12-.92-.19-1.87-.22-2.83-.13-4.56-.17-9.12-.17-13.7,0-5.39.05-10.81.1-16.3.03-3.38.06-6.79.06-10.23,0-2.09-.01-4.1-.01-6.06,0-2.61,0-5.14.02-7.66.02-3.03.49-5.94,1.33-8.64C7.62,10.28,15.87,3.15,25.61,3c9.87-.15,18.3,7.03,21.42,17.21.84,2.71,1.3,5.64,1.31,8.7.01,2.53.01,5.07.01,7.6.01,5.43.02,10.86.02,16.29Z"/>
    <line class="cls-1" x1="47.03" y1="20.21" x2="4.5" y2="20.21"/>
    <line class="cls-1" x1="48.35" y1="36.51" x2="3.15" y2="36.51"/>
    <line class="cls-1" x1="48.37" y1="52.8" x2="3.1" y2="52.8"/>
    <line class="cls-1" x1="48.35" y1="69.1" x2="3" y2="69.1"/>
    <line class="cls-1" x1="48.06" y1="85.63" x2="3.39" y2="85.63"/>
  </g>
</svg>