<?xml version="1.0" encoding="UTF-8"?>
<svg id="Layer_2" data-name="Layer 2" xmlns="http://www.w3.org/2000/svg" width="54.6" height="108.23" viewBox="0 0 54.6 108.23">
  <defs>
    <style>
      .cls-1 {
        fill: none;
        stroke: black;
        stroke-miterlimit: 10;
        stroke-width: 6px;
      }
    </style>
  </defs>
  <g id="Layer_1-2" data-name="Layer 1">
    <path class="cls-1" d="m51.59,53.99c.02.29-.03.58-.15.85l-7.14,15.45-7.63,16.53-8.11,17.55c-.53,1.14-1.99,1.14-2.52,0l-8.11-17.55-7.64-16.53-7.14-15.45c-.12-.27-.17-.56-.15-.85.01-.21.06-.42.15-.61l7.25-15.68,7.53-16.3L26.04,3.86c.53-1.15,1.99-1.15,2.52,0l8.1,17.54,7.54,16.3,7.24,15.68c.08.19.14.4.15.61Z"/>
    <line class="cls-1" x1="36.66" y1="21.4" x2="17.93" y2="21.4"/>
    <line class="cls-1" x1="44.2" y1="37.7" x2="10.4" y2="37.7"/>
    <line class="cls-1" x1="51.59" y1="53.99" x2="3" y2="53.99"/>
    <line class="cls-1" x1="44.3" y1="70.29" x2="10.29" y2="70.29"/>
    <line class="cls-1" x1="36.67" y1="86.82" x2="17.93" y2="86.82"/>
  </g>
</svg>