<?xml version="1.0" encoding="UTF-8"?>
<svg id="Layer_2" data-name="Layer 2" xmlns="http://www.w3.org/2000/svg" width="55.54" height="109.93" viewBox="0 0 55.54 109.93">
  <defs>
    <style>
      .cls-1 {
        fill: black;
        stroke-width: 0px;
      }
    </style>
  </defs>
  <g id="Layer_1-2" data-name="Layer 1">
    <g>
      <path class="cls-1" d="m45.75,73.24H1.59l.44-2.36c.72-3.91,1.86-7.92,3.38-11.92l.49-1.29h42.22l-1.2,2.79c-1.45,3.36-1.94,6.9-1.47,10.51l.3,2.26Zm-39.3-4h34.84c-.1-2.57.22-5.1.94-7.57H8.67c-.92,2.56-1.66,5.06-2.22,7.57Z"/>
      <path class="cls-1" d="m51.36,85.49H1.55l-.2-1.78c-.32-2.83-.29-5.88.09-9.07.14-1.14.32-2.34.59-3.77l.3-1.64h42.89l.23,1.74c.3,2.29,1,4.67,2.06,7.08h0c.71,1.61,1.54,3.17,2.25,4.47l1.61,2.96Zm-46.19-4h39.52c-.29-.59-.58-1.19-.85-1.81h0c-.96-2.16-1.65-4.32-2.08-6.44H5.67c-.11.67-.19,1.28-.26,1.88-.26,2.22-.34,4.35-.23,6.37Z"/>
      <path class="cls-1" d="m46.39,61.67H4.37l1.03-2.71c.61-1.61,1.3-3.27,2.06-4.93,1.01-2.23,1.8-4.49,2.35-6.7l.38-1.52h41.59l-.52,2.42c-.84,3.91-2.16,7.69-3.9,11.24-.16.33-.31.66-.45.98l-.52,1.21Zm-36.16-4h33.56c1.25-2.55,2.22-5.14,2.96-7.86H13.29c-.57,1.95-1.3,3.92-2.18,5.86-.3.67-.59,1.33-.87,1.99Z"/>
      <path class="cls-1" d="m55.54,97.16H6.62l-.6-.84c-2.56-3.57-4.13-7.82-4.67-12.61l-.25-2.22h48.09l.57,1.04c.62,1.14,1.26,2.27,1.9,3.4.64,1.14,1.28,2.27,1.91,3.41,1.01,1.86,1.61,3.75,1.78,5.63l.2,2.18Zm-46.83-4h42.18c-.21-.63-.49-1.27-.84-1.9-.61-1.12-1.24-2.24-1.88-3.36-.45-.8-.91-1.6-1.35-2.41H5.67c.57,2.84,1.58,5.41,3.04,7.67Z"/>
      <path class="cls-1" d="m50.92,49.82H9.2l.62-2.48c.94-3.75,1.17-7.49.7-11.12l-.29-2.26h42.13l.04,1.96c.09,4.29-.29,8.43-1.13,12.32l-.34,1.58Zm-36.69-4h33.43c.45-2.52.7-5.15.74-7.86H14.7c.15,2.59,0,5.22-.47,7.86Z"/>
      <path class="cls-1" d="m33.89,109.93c-6.49,0-13.1-2.06-19.77-6.19-3.32-2.05-6.04-4.54-8.1-7.42l-2.26-3.16h51.42l.17,1.82c.43,4.74-1.93,8.81-6.5,11.17-4.89,2.53-9.88,3.79-14.95,3.79Zm-21.84-12.77c1.23,1.16,2.62,2.22,4.17,3.18h0c10.62,6.56,20.98,7.32,30.79,2.25,2.46-1.27,3.94-3.16,4.3-5.43H12.05Z"/>
      <path class="cls-1" d="m51.13,25.51H7l-.58-1c-.65-1.13-1.27-2.11-1.88-3-.25-.36-.5-.72-.76-1.08C2.03,17.99.04,15.23.02,11.85l-.02-2.02h42.02l.59.62c3.35,3.5,5.9,7.67,7.57,12.39l.95,2.67Zm-41.83-4h36.03c-1.3-2.84-2.99-5.41-5.04-7.68H4.44c.56,1.44,1.58,2.87,2.59,4.27.27.38.54.75.8,1.13.49.71.98,1.46,1.48,2.29Z"/>
      <path class="cls-1" d="m52.43,37.96H10.74l-.23-1.74c-.51-3.94-1.89-7.87-4.09-11.71l-1.72-3h45.01l.47,1.33c1.29,3.64,2.02,7.5,2.17,11.49.02.36.02.72.02,1.08l.05,2.55Zm-38.22-4h34.13c-.15-2.91-.65-5.75-1.48-8.45H11.45c1.3,2.78,2.22,5.6,2.75,8.45Z"/>
      <path class="cls-1" d="m45.85,13.83H.03l-.02-1.98c-.01-1.61.43-3.2,1.3-4.73C4.71,1.24,10.91.25,15.94.04h0c10.36-.45,19.84,3.26,26.68,10.41l3.23,3.38ZM4.43,9.83h31.45c-5.54-4.07-12.39-6.1-19.77-5.8-4.46.19-8.93.93-11.32,5.09-.14.24-.26.48-.36.71Z"/>
    </g>
  </g>
</svg>